<svg id="visual" viewBox="0 0 900 600" width="900" height="600" xmlns="http://www.w3.org/2000/svg" xmlns:xlink="http://www.w3.org/1999/xlink" version="1.1"><rect width="900" height="600" fill="#001829"></rect><g><g transform="translate(361 184)"><path d="M0 -83L71.9 -41.5L71.9 41.5L0 83L-71.9 41.5L-71.9 -41.5Z" fill="#297EA6"></path></g><g transform="translate(750 556)"><path d="M0 -58L50.2 -29L50.2 29L0 58L-50.2 29L-50.2 -29Z" fill="#297EA6"></path></g><g transform="translate(603 152)"><path d="M0 -33L28.6 -16.5L28.6 16.5L0 33L-28.6 16.5L-28.6 -16.5Z" fill="#297EA6"></path></g><g transform="translate(859 147)"><path d="M0 -42L36.4 -21L36.4 21L0 42L-36.4 21L-36.4 -21Z" fill="#297EA6"></path></g><g transform="translate(116 584)"><path d="M0 -35L30.3 -17.5L30.3 17.5L0 35L-30.3 17.5L-30.3 -17.5Z" fill="#297EA6"></path></g><g transform="translate(134 54)"><path d="M0 -64L55.4 -32L55.4 32L0 64L-55.4 32L-55.4 -32Z" fill="#297EA6"></path></g><g transform="translate(751 331)"><path d="M0 -37L32 -18.5L32 18.5L0 37L-32 18.5L-32 -18.5Z" fill="#297EA6"></path></g><g transform="translate(399 495)"><path d="M0 -42L36.4 -21L36.4 21L0 42L-36.4 21L-36.4 -21Z" fill="#297EA6"></path></g><g transform="translate(601 417)"><path d="M0 -60L52 -30L52 30L0 60L-52 30L-52 -30Z" fill="#297EA6"></path></g><g transform="translate(464 318)"><path d="M0 -31L26.8 -15.5L26.8 15.5L0 31L-26.8 15.5L-26.8 -15.5Z" fill="#297EA6"></path></g><g transform="translate(156 236)"><path d="M0 -50L43.3 -25L43.3 25L0 50L-43.3 25L-43.3 -25Z" fill="#297EA6"></path></g><g transform="translate(731 8)"><path d="M0 -31L26.8 -15.5L26.8 15.5L0 31L-26.8 15.5L-26.8 -15.5Z" fill="#297EA6"></path></g><g transform="translate(199 421)"><path d="M0 -53L45.9 -26.5L45.9 26.5L0 53L-45.9 26.5L-45.9 -26.5Z" fill="#297EA6"></path></g><g transform="translate(429 10)"><path d="M0 -81L70.1 -40.5L70.1 40.5L0 81L-70.1 40.5L-70.1 -40.5Z" fill="#297EA6"></path></g><g transform="translate(14 409)"><path d="M0 -52L45 -26L45 26L0 52L-45 26L-45 -26Z" fill="#297EA6"></path></g><g transform="translate(585 587)"><path d="M0 -65L56.3 -32.5L56.3 32.5L0 65L-56.3 32.5L-56.3 -32.5Z" fill="#297EA6"></path></g><g transform="translate(893 432)"><path d="M0 -43L37.2 -21.5L37.2 21.5L0 43L-37.2 21.5L-37.2 -21.5Z" fill="#297EA6"></path></g></g></svg>