<svg id="visual" viewBox="0 0 900 600" width="900" height="600" xmlns="http://www.w3.org/2000/svg" xmlns:xlink="http://www.w3.org/1999/xlink" version="1.1"><rect x="0" y="0" width="900" height="600" fill="#0e0e0e"></rect><path d="M0 307L82 276L164 286L245 304L327 277L409 271L491 247L573 262L655 273L736 264L818 304L900 287L900 601L818 601L736 601L655 601L573 601L491 601L409 601L327 601L245 601L164 601L82 601L0 601Z" fill="#0066ff"></path><path d="M0 338L82 371L164 320L245 353L327 353L409 334L491 368L573 311L655 314L736 323L818 343L900 343L900 601L818 601L736 601L655 601L573 601L491 601L409 601L327 601L245 601L164 601L82 601L0 601Z" fill="#0080ff"></path><path d="M0 432L82 423L164 436L245 423L327 438L409 403L491 393L573 451L655 424L736 404L818 445L900 443L900 601L818 601L736 601L655 601L573 601L491 601L409 601L327 601L245 601L164 601L82 601L0 601Z" fill="#1e97fd"></path><path d="M0 489L82 532L164 506L245 526L327 501L409 488L491 501L573 492L655 516L736 527L818 512L900 503L900 601L818 601L736 601L655 601L573 601L491 601L409 601L327 601L245 601L164 601L82 601L0 601Z" fill="#4facf7"></path></svg>